<svg xmlns="http://www.w3.org/2000/svg" version="1.1" xmlns:xlink="http://www.w3.org/1999/xlink" xmlns:svgjs="http://svgjs.dev/svgjs" width="1440" height="250" preserveAspectRatio="none" viewBox="0 0 1440 250">
    <g mask="url(&quot;#SvgjsMask2339&quot;)" fill="none">
        <rect width="1440" height="250" x="0" y="0" fill="url(&quot;#SvgjsLinearGradient2340&quot;)"></rect>
        <path d="M28 250L278 0L516.5 0L266.5 250z" fill="url(&quot;#SvgjsLinearGradient2341&quot;)"></path>
        <path d="M257.6 250L507.6 0L597.6 0L347.6 250z" fill="url(&quot;#SvgjsLinearGradient2341&quot;)"></path>
        <path d="M512.2 250L762.2 0L841.7 0L591.7 250z" fill="url(&quot;#SvgjsLinearGradient2341&quot;)"></path>
        <path d="M742.8000000000001 250L992.8000000000001 0L1223.8000000000002 0L973.8000000000001 250z" fill="url(&quot;#SvgjsLinearGradient2341&quot;)"></path>
        <path d="M1406 250L1156 0L1078 0L1328 250z" fill="url(&quot;#SvgjsLinearGradient2342&quot;)"></path>
        <path d="M1192.4 250L942.4000000000001 0L838.9000000000001 0L1088.9 250z" fill="url(&quot;#SvgjsLinearGradient2342&quot;)"></path>
        <path d="M942.8 250L692.8 0L583.3 0L833.3 250z" fill="url(&quot;#SvgjsLinearGradient2342&quot;)"></path>
        <path d="M692.1999999999999 250L442.19999999999993 0L233.69999999999993 0L483.69999999999993 250z" fill="url(&quot;#SvgjsLinearGradient2342&quot;)"></path>
        <path d="M1276.415746443331 250L1440 86.41574644333093L1440 250z" fill="url(&quot;#SvgjsLinearGradient2341&quot;)"></path>
        <path d="M0 250L163.58425355666907 250L 0 86.41574644333093z" fill="url(&quot;#SvgjsLinearGradient2342&quot;)"></path>
    </g>
    <defs>
        <mask id="SvgjsMask2339">
            <rect width="1440" height="250" fill="#ffffff"></rect>
        </mask>
        <linearGradient x1="20.66%" y1="-119%" x2="79.34%" y2="219%" gradientUnits="userSpaceOnUse" id="SvgjsLinearGradient2340">
            <stop stop-color="rgba(70, 0, 0, 1)" offset="0.02"></stop>
            <stop stop-color="rgba(0, 0, 0, 1)" offset="0.48"></stop>
            <stop stop-color="rgba(23, 0, 70, 1)" offset="1"></stop>
        </linearGradient>
        <linearGradient x1="0%" y1="100%" x2="100%" y2="0%" id="SvgjsLinearGradient2341">
            <stop stop-color="rgba(185, 15, 15, 0)" offset="0"></stop>
            <stop stop-opacity="0" stop-color="rgba(185, 15, 15, 0)" offset="0.66"></stop>
        </linearGradient>
        <linearGradient x1="100%" y1="100%" x2="0%" y2="0%" id="SvgjsLinearGradient2342">
            <stop stop-color="rgba(185, 15, 15, 0)" offset="0"></stop>
            <stop stop-opacity="0" stop-color="rgba(185, 15, 15, 0)" offset="0.66"></stop>
        </linearGradient>
    </defs>
</svg>